<svg width="24" height="24" viewBox="0 0 24 24" fill="none" xmlns="http://www.w3.org/2000/svg">
<rect width="24" height="24" rx="4" fill="white"/>
<path fill-rule="evenodd" clip-rule="evenodd" d="M3 21H21V3H3V21Z" fill="black" fill-opacity="0.01"/>
<path fill-rule="evenodd" clip-rule="evenodd" d="M15.5679 18.0479H8.36294L7.50694 7.8749H9.50494H14.4869H16.4239L15.5679 18.0479ZM10.0049 6.8749H13.9869V5.9519H10.0049V6.8749ZM17.5619 6.8749H14.9869V5.9519C14.9869 5.4009 14.5379 4.9519 13.9869 4.9519H10.0049C9.45294 4.9519 9.00494 5.4009 9.00494 5.9519V6.8749H6.43994C6.16394 6.8749 5.93994 7.0989 5.93994 7.3749C5.93994 7.6519 6.16394 7.8749 6.43994 7.8749H6.50394L7.36694 18.1309C7.40894 18.6459 7.84694 19.0479 8.36294 19.0479H15.5679C16.0919 19.0479 16.5209 18.6539 16.5649 18.1319L17.4269 7.8749H17.5619C17.8379 7.8749 18.0619 7.6519 18.0619 7.3749C18.0619 7.0989 17.8379 6.8749 17.5619 6.8749Z" fill="#3B3B3B"/>
<path fill-rule="evenodd" clip-rule="evenodd" d="M10.1362 10.623C9.86023 10.623 9.63623 10.847 9.63623 11.123V14.538C9.63623 14.814 9.86023 15.038 10.1362 15.038C10.4122 15.038 10.6362 14.814 10.6362 14.538V11.123C10.6362 10.847 10.4122 10.623 10.1362 10.623Z" fill="#3B3B3B"/>
<path fill-rule="evenodd" clip-rule="evenodd" d="M13.855 10.623C13.579 10.623 13.355 10.847 13.355 11.123V14.538C13.355 14.814 13.579 15.038 13.855 15.038C14.131 15.038 14.355 14.814 14.355 14.538V11.123C14.355 10.847 14.131 10.623 13.855 10.623Z" fill="#3B3B3B"/>
</svg>
