<svg width="49" height="49" viewBox="0 0 49 49" fill="none" xmlns="http://www.w3.org/2000/svg">
<path d="M5.95703 34.5254H11.3164L12.082 39.8848H8.82812C8.06666 39.8848 7.33639 39.5823 6.79796 39.0438C6.25952 38.5054 5.95703 37.7751 5.95703 37.0137V34.5254Z" fill="#C8C4E1"/>
<path d="M37.6348 7.05859V39.8848H9.01953C10.33 39.6187 11.3164 38.4027 11.3164 37.0137V6.00586C11.3164 5.2444 11.6189 4.51412 12.1573 3.97569C12.6958 3.43725 13.426 3.13477 14.1875 3.13477H16.9533L37.6348 7.05859Z" fill="#E6E5F2"/>
<path d="M18.1838 29.3086H30.8166C31.4503 29.3086 31.449 28.3516 30.8166 28.3516H18.1838C17.5501 28.3516 17.5513 29.3086 18.1838 29.3086ZM18.1838 31.7012H30.8166C31.4503 31.7012 31.449 30.7441 30.8166 30.7441H18.1838C17.5501 30.7441 17.5513 31.7012 18.1838 31.7012ZM18.1838 34.0938H23.1603C23.7941 34.0938 23.7927 33.1367 23.1603 33.1367H18.1838C17.5501 33.1367 17.5513 34.0938 18.1838 34.0938Z" fill="#746E80"/>
<path d="M17.6328 6.00586V8.49414H42.9941V6.00586C42.9941 5.2444 42.6917 4.51412 42.1532 3.97569C41.6148 3.43725 40.8845 3.13477 40.123 3.13477H14.7617C15.5232 3.13477 16.2535 3.43725 16.7919 3.97569C17.3303 4.51412 17.6328 5.2444 17.6328 6.00586Z" fill="#C8C4E1"/>
<path d="M34.8611 36.1455C32.7738 42.8815 33.7871 39.6116 32.3996 44.0895C32.3535 44.2383 32.3538 44.3976 32.4006 44.5462C32.4473 44.6948 32.5383 44.8255 32.6613 44.9211C32.7843 45.0166 32.9336 45.0724 33.0891 45.0809C33.2446 45.0894 33.399 45.0503 33.5318 44.9688L34.5538 44.3401L35.0412 45.4364C35.1045 45.5787 35.2097 45.6984 35.3428 45.7793C35.4758 45.8603 35.6304 45.8988 35.786 45.8896C35.9415 45.8804 36.0905 45.824 36.2131 45.7279C36.3357 45.6318 36.4261 45.5006 36.4721 45.3518L37.4968 42.0446L38.5216 45.352C38.5677 45.5008 38.6581 45.632 38.7807 45.728C38.9033 45.8241 39.0524 45.8805 39.2079 45.8897C39.3634 45.8989 39.518 45.8604 39.651 45.7794C39.7841 45.6984 39.8893 45.5787 39.9526 45.4364L40.44 44.3401L41.4619 44.9688C41.5947 45.0503 41.7491 45.0894 41.9047 45.0808C42.0602 45.0723 42.2094 45.0165 42.3325 44.9209C42.4555 44.8254 42.5464 44.6946 42.5932 44.546C42.6399 44.3974 42.6402 44.238 42.5941 44.0892L40.1326 36.1455H34.8611Z" fill="#EF5275"/>
<path d="M37.4974 30.4604L38.3663 29.9033C38.456 29.8458 38.5567 29.8077 38.662 29.7913C38.7673 29.7749 38.8748 29.7807 38.9777 29.8083C39.0806 29.8359 39.1766 29.8846 39.2596 29.9514C39.3426 30.0182 39.4107 30.1016 39.4597 30.1962L39.9338 31.1133L40.9649 31.0652C41.0713 31.0603 41.1776 31.0776 41.277 31.1161C41.3763 31.1546 41.4665 31.2133 41.5419 31.2887C41.6172 31.364 41.676 31.4543 41.7144 31.5536C41.7529 31.653 41.7702 31.7593 41.7652 31.8657L41.7174 32.8968L42.6343 33.3709C42.729 33.4198 42.8123 33.488 42.8791 33.571C42.9459 33.654 42.9947 33.75 43.0223 33.8529C43.0498 33.9558 43.0556 34.0633 43.0393 34.1686C43.0229 34.2738 42.9848 34.3745 42.9273 34.4642L42.3702 35.3332L42.9273 36.2023C42.9848 36.292 43.0229 36.3927 43.0393 36.4979C43.0556 36.6032 43.0498 36.7107 43.0223 36.8136C42.9947 36.9165 42.9459 37.0126 42.8791 37.0956C42.8123 37.1785 42.729 37.2467 42.6343 37.2956L41.7173 37.7697L41.7653 38.8008C41.7703 38.9072 41.753 39.0135 41.7145 39.1129C41.676 39.2122 41.6172 39.3025 41.5419 39.3778C41.4665 39.4531 41.3763 39.5119 41.277 39.5504C41.1776 39.5888 41.0713 39.6061 40.9649 39.6012L39.9338 39.5533L39.4597 40.4703C39.4107 40.5649 39.3426 40.6483 39.2596 40.7151C39.1766 40.7819 39.0806 40.8306 38.9777 40.8582C38.8748 40.8858 38.7673 40.8916 38.662 40.8752C38.5567 40.8589 38.456 40.8207 38.3663 40.7632L37.4974 40.2061L36.6283 40.7632C36.5386 40.8207 36.4379 40.8589 36.3326 40.8752C36.2274 40.8916 36.1198 40.8858 36.0169 40.8582C35.914 40.8306 35.818 40.7819 35.735 40.7151C35.652 40.6483 35.5839 40.5649 35.535 40.4703L35.0609 39.5532L34.0298 39.6012C33.9233 39.6061 33.8171 39.5888 33.7177 39.5503C33.6184 39.5119 33.5281 39.4531 33.4528 39.3778C33.3775 39.3024 33.3187 39.2122 33.2802 39.1129C33.2418 39.0135 33.2244 38.9072 33.2294 38.8008L33.2772 37.7697L32.3603 37.2956C32.2657 37.2467 32.1823 37.1785 32.1155 37.0956C32.0487 37.0126 32 36.9165 31.9724 36.8136C31.9448 36.7107 31.939 36.6032 31.9554 36.4979C31.9717 36.3927 32.0099 36.292 32.0674 36.2023L32.6244 35.3333L32.0674 34.4642C32.0099 34.3745 31.9717 34.2738 31.9554 34.1686C31.939 34.0633 31.9448 33.9558 31.9724 33.8529C32 33.75 32.0487 33.654 32.1155 33.571C32.1823 33.488 32.2657 33.4198 32.3603 33.3709L33.2773 32.8968L33.2294 31.8657C33.2244 31.7593 33.2417 31.653 33.2802 31.5536C33.3187 31.4543 33.3774 31.364 33.4528 31.2887C33.5281 31.2133 33.6183 31.1546 33.7177 31.1161C33.817 31.0776 33.9233 31.0603 34.0298 31.0652L35.0609 31.1133L35.535 30.1962C35.5839 30.1016 35.652 30.0182 35.735 29.9514C35.818 29.8846 35.914 29.8359 36.0169 29.8083C36.1198 29.7807 36.2274 29.7749 36.3326 29.7913C36.4379 29.8077 36.5386 29.8458 36.6283 29.9033L37.4974 30.4604Z" fill="#F99151"/>
<path d="M37.4969 38.4762C39.2329 38.4762 40.6403 37.0689 40.6403 35.3328C40.6403 33.5968 39.2329 32.1895 37.4969 32.1895C35.7608 32.1895 34.3535 33.5968 34.3535 35.3328C34.3535 37.0689 35.7608 38.4762 37.4969 38.4762Z" fill="#FBD85C"/>
<path d="M31.2162 14.4132L28.1001 11.2971C27.7422 10.9393 27.2003 11.48 27.5587 11.8385L28.5918 12.8716L27.4152 14.0481L25.2211 11.854C24.8632 11.4962 24.3213 12.037 24.6797 12.3954L25.8407 13.5565L20.8989 18.4984C20.6475 18.7497 20.5063 19.0906 20.5062 19.446C20.5061 19.8014 20.6472 20.1423 20.8984 20.3937L20.984 20.4794L20.0844 21.379C19.9882 21.4665 19.9186 21.5794 19.8834 21.7046C19.8483 21.8298 19.849 21.9624 19.8855 22.0872H19.8848L17.7936 24.1783C17.431 24.541 17.9814 25.0731 18.335 24.7198L20.4263 22.6285V22.6275C20.551 22.6641 20.6836 22.6648 20.8087 22.6297C20.9339 22.5946 21.0467 22.525 21.1343 22.429L22.034 21.5293L22.1079 21.6032C22.2338 21.7292 22.3833 21.8291 22.5479 21.8973C22.7125 21.9654 22.8888 22.0005 23.067 22.0005C23.2451 22.0005 23.4215 21.9654 23.586 21.8973C23.7506 21.8291 23.9001 21.7292 24.026 21.6032L24.1857 21.4436L22.8965 20.1543C22.538 19.7957 23.08 19.2552 23.4379 19.6129L24.7272 20.9022L25.4677 20.1616L24.1784 18.8723C23.8207 18.5144 24.3614 17.9726 24.7199 18.3308L26.0092 19.6203L26.7498 18.8796L25.4604 17.5903C25.1025 17.2324 25.6433 16.6907 26.0018 17.0489L27.2912 18.3381L28.9568 16.6726L30.1179 17.8338C30.4715 18.1871 31.0218 17.655 30.6593 17.2923L28.4651 15.0982L29.6417 13.9215L30.6748 14.9546C31.0284 15.308 31.5787 14.7759 31.2162 14.4132Z" fill="#706683"/>
</svg>
