<svg width="39" height="39" viewBox="0 0 39 39" fill="none" xmlns="http://www.w3.org/2000/svg">
<g clip-path="url(#clip0_5600_30340)">
<path d="M36.0181 9.20605H2.98188C1.56 9.20605 0.40625 10.3598 0.40625 11.7817V27.2192C0.40625 28.6411 1.56 29.7948 2.98188 29.7948H36.0263C37.4481 29.7948 38.6019 28.6411 38.6019 27.2192V11.7817C38.5984 11.0982 38.3249 10.4439 37.8408 9.96136C37.3568 9.47885 36.7016 9.20733 36.0181 9.20605Z" fill="#FCC400"/>
<path d="M31.0948 13.0654H7.90602C7.90602 14.9423 6.38664 16.4617 4.50977 16.4617V22.5473C6.38664 22.5473 7.90602 24.0667 7.90602 25.9436H31.0948C31.0948 24.0667 32.6141 22.5473 34.491 22.5473V16.4617C32.6141 16.4617 31.0948 14.9423 31.0948 13.0654Z" fill="#B88F00"/>
<path d="M19.4998 23.6842C21.8108 23.6842 23.6842 21.8108 23.6842 19.4998C23.6842 17.1888 21.8108 15.3154 19.4998 15.3154C17.1888 15.3154 15.3154 17.1888 15.3154 19.4998C15.3154 21.8108 17.1888 23.6842 19.4998 23.6842Z" fill="white"/>
<path d="M10.1071 8.25492C10.3264 8.25492 10.5377 8.17367 10.7083 8.00305C11.0414 7.66992 11.0414 7.13367 10.7083 6.80055L9.08332 5.17555H31.9714C32.1956 5.17555 32.4105 5.08652 32.569 4.92805C32.7274 4.76958 32.8164 4.55465 32.8164 4.33055C32.8164 4.10644 32.7274 3.89151 32.569 3.73304C32.4105 3.57457 32.1956 3.48555 31.9714 3.48555H9.0752L10.7002 1.86055C11.0333 1.52742 11.0333 0.991172 10.7002 0.658047C10.3671 0.324922 9.83082 0.324922 9.49769 0.658047L5.8252 4.33055L9.50582 8.01117C9.66832 8.17367 9.88769 8.25492 10.1071 8.25492ZM29.4933 30.9887C29.1602 30.6555 28.6239 30.6555 28.2908 30.9887C27.9577 31.3218 27.9577 31.858 28.2908 32.1912L29.9158 33.8162H7.02769C6.91673 33.8162 6.80685 33.838 6.70433 33.8805C6.60181 33.923 6.50866 33.9852 6.43019 34.0637C6.35172 34.1421 6.28948 34.2353 6.24702 34.3378C6.20455 34.4403 6.1827 34.5502 6.1827 34.6612C6.1827 34.7721 6.20455 34.882 6.24702 34.9845C6.28948 35.0871 6.35172 35.1802 6.43019 35.2587C6.50866 35.3371 6.60181 35.3994 6.70433 35.4419C6.80685 35.4843 6.91673 35.5062 7.02769 35.5062H29.9158L28.2908 37.1312C27.9577 37.4643 27.9577 38.0005 28.2908 38.3337C28.4533 38.4962 28.6727 38.5855 28.8921 38.5855C29.1114 38.5855 29.3227 38.5043 29.4933 38.3337L33.1739 34.653L29.4933 30.9887Z" fill="#224156"/>
<path d="M9.60363 20.8489C10.3485 20.8489 10.9524 20.245 10.9524 19.5001C10.9524 18.7552 10.3485 18.1514 9.60363 18.1514C8.85874 18.1514 8.25488 18.7552 8.25488 19.5001C8.25488 20.245 8.85874 20.8489 9.60363 20.8489Z" fill="white"/>
<path d="M29.3966 20.8489C30.1415 20.8489 30.7454 20.245 30.7454 19.5001C30.7454 18.7552 30.1415 18.1514 29.3966 18.1514C28.6517 18.1514 28.0479 18.7552 28.0479 19.5001C28.0479 20.245 28.6517 20.8489 29.3966 20.8489Z" fill="white"/>
</g>
<defs>
<clipPath id="clip0_5600_30340">
<rect width="39" height="39" fill="white"/>
</clipPath>
</defs>
</svg>
