<svg width="43" height="44" viewBox="0 0 43 44" fill="none" xmlns="http://www.w3.org/2000/svg">
<path d="M38.241 5.78013C33.4199 4.83319 28.7815 3.15064 24.4961 0.794283C23.5874 0.274165 22.5532 0 21.5 0C20.4468 0 19.4126 0.274165 18.5039 0.794283C14.2185 3.15064 9.5801 4.83319 4.75906 5.78013C3.41976 6.05576 2.21734 6.77085 1.35165 7.80657C0.485953 8.84229 0.00911783 10.1362 0.000394984 11.4734V15.1757C-0.0262303 20.301 1.29364 25.3472 3.83375 29.8317C6.37387 34.3162 10.0493 38.0889 14.5084 40.7891L18.3521 43.1189C19.2947 43.6947 20.384 44 21.4957 44C22.6074 44 23.6966 43.6947 24.6392 43.1189L28.4808 40.7891C32.942 38.0902 36.6195 34.318 39.1616 29.8334C41.7036 25.3489 43.0251 20.302 42.9996 15.1757V11.4734C42.9909 10.1362 42.5141 8.84229 41.6484 7.80657C40.7827 6.77085 39.5803 6.05576 38.241 5.78013Z" fill="#00A0A8"/>
<path d="M25.5185 25C25.3555 25.0004 25.1941 24.9647 25.0436 24.8947C24.8931 24.8248 24.7565 24.7221 24.6417 24.5927L21.333 20.8897C21.1138 20.6265 20.9945 20.2783 21.0002 19.9186C21.0059 19.5588 21.1361 19.2156 21.3634 18.9612C21.5907 18.7067 21.8974 18.561 22.2189 18.5547C22.5403 18.5483 22.8514 18.6819 23.0866 18.9271L25.5185 21.647L32.9134 13.3727C33.1486 13.1274 33.4597 12.9939 33.7811 13.0002C34.1026 13.0066 34.4093 13.1523 34.6366 13.4067C34.8639 13.6611 34.9941 14.0044 34.9998 14.3641C35.0055 14.7239 34.8862 15.072 34.667 15.3353L26.3953 24.5927C26.2805 24.7221 26.1439 24.8248 25.9934 24.8947C25.8429 24.9647 25.6815 25.0004 25.5185 25Z" fill="#FCC400"/>
<path d="M21.9265 31C20.3191 31.003 18.7352 30.5917 17.3113 29.8014C15.8874 29.0111 14.6663 27.8656 13.7534 26.4637C12.8404 25.0618 12.263 23.4456 12.071 21.7545C11.8789 20.0634 12.078 18.3482 12.651 16.7568C13.224 15.1655 14.1538 13.7457 15.3601 12.62C16.5664 11.4943 18.013 10.6965 19.5752 10.2953C21.1374 9.8942 22.7682 9.9018 24.3269 10.3175C25.8857 10.7332 27.3256 11.5444 28.5226 12.6814C28.6904 12.8217 28.8292 12.997 28.9306 13.1965C29.032 13.396 29.0937 13.6153 29.112 13.8411C29.1303 14.0668 29.1047 14.2941 29.0368 14.5089C28.9689 14.7237 28.8603 14.9216 28.7174 15.0902C28.5746 15.2587 28.4007 15.3945 28.2065 15.4891C28.0122 15.5837 27.8017 15.6351 27.5879 15.6402C27.3742 15.6452 27.1618 15.6038 26.9637 15.5184C26.7657 15.433 26.5862 15.3056 26.4365 15.1439C25.1991 13.963 23.5917 13.3115 21.9265 13.3158C20.1284 13.3158 18.404 14.0727 17.1325 15.42C15.8611 16.7673 15.1468 18.5946 15.1468 20.5C15.1468 22.4054 15.8611 24.2327 17.1325 25.58C18.404 26.9273 20.1284 27.6842 21.9265 27.6842C22.2828 27.6815 22.6384 27.6504 22.9904 27.5914C23.6374 27.483 24.2654 27.2721 24.8532 26.9658C26.2414 26.2666 27.3603 25.0825 28.0219 23.6124C28.2 23.2152 28.5198 22.9093 28.9108 22.7619C29.3018 22.6145 29.7321 22.6378 30.1069 22.8266C30.4817 23.0153 30.7704 23.3542 30.9095 23.7685C31.0486 24.1829 31.0266 24.6388 30.8485 25.036C29.8791 27.19 28.2414 28.9262 26.2091 29.9544C25.3405 30.4041 24.4129 30.7126 23.4576 30.8696C22.951 30.9532 22.4392 30.9968 21.9265 31Z" fill="white"/>
</svg>
