<svg width="56" height="56" viewBox="0 0 56 56" fill="none" xmlns="http://www.w3.org/2000/svg">
<path d="M43.211 7.92383L13.293 25.1788L16.611 49.1958C16.751 50.1898 17.857 50.7148 18.718 50.1968L46.109 33.5158C46.837 33.0748 47.222 32.2348 47.082 31.3948L43.211 7.92383Z" fill="#F1F1F2"/>
<path d="M41.5174 7.46191L11.9424 24.6469L13.2934 25.1789L43.2114 7.92391L41.5174 7.46191Z" fill="#BBBDBF"/>
<path d="M11.9415 24.6475L8.90354 45.3255C8.77754 46.1725 9.67354 46.8025 10.4295 46.3965L15.8265 43.5265L13.2925 25.1795L11.9415 24.6475Z" fill="#DEDCED"/>
<path d="M41.7688 8.74961C41.5588 6.98561 40.3828 5.59961 39.0948 5.59961C38.5768 5.59961 38.0938 5.82361 37.7298 6.23661C37.1838 6.84561 36.9388 7.83261 37.0578 8.87561C37.0998 9.23961 37.1838 9.58961 37.3028 9.91161L38.2268 9.37261C38.1638 9.17661 38.1218 8.96661 38.0938 8.74961C38.0028 8.01461 38.1638 7.31461 38.5068 6.92961C38.6748 6.74061 38.8708 6.64261 39.0878 6.64261C39.7388 6.64261 40.5718 7.55961 40.7258 8.87561C40.8168 9.61061 40.6558 10.3106 40.3128 10.6956C40.1448 10.8846 39.9488 10.9826 39.7318 10.9826V12.0256C40.2498 12.0256 40.7328 11.8016 41.0968 11.3886C41.6428 10.7796 41.8948 9.79261 41.7688 8.74961ZM36.0358 12.0816C35.8258 10.3176 34.6498 8.93161 33.3618 8.93161C32.8438 8.93161 32.3608 9.15561 31.9968 9.56861C31.4508 10.1776 31.2058 11.1646 31.3248 12.2076C31.3668 12.5716 31.4508 12.9216 31.5698 13.2436L32.4938 12.7046C32.4308 12.5086 32.3888 12.2986 32.3608 12.0816C32.2698 11.3466 32.4308 10.6466 32.7738 10.2616C32.9418 10.0726 33.1378 9.97461 33.3548 9.97461C34.0058 9.97461 34.8388 10.8916 34.9928 12.2076C35.0838 12.9426 34.9228 13.6426 34.5798 14.0276C34.4118 14.2166 34.2158 14.3146 33.9988 14.3146V15.3576C34.5168 15.3576 34.9998 15.1336 35.3638 14.7206C35.9098 14.1116 36.1548 13.1246 36.0358 12.0816ZM30.3098 15.4066C30.0998 13.6426 28.9238 12.2566 27.6358 12.2566C27.1178 12.2566 26.6348 12.4806 26.2708 12.8936C25.7248 13.5026 25.4798 14.4896 25.5988 15.5326C25.6408 15.8966 25.7248 16.2466 25.8438 16.5686L26.7678 16.0296C26.7048 15.8336 26.6628 15.6236 26.6348 15.4066C26.5438 14.6716 26.7048 13.9716 27.0478 13.5866C27.2158 13.3976 27.4118 13.2996 27.6288 13.2996C28.2798 13.2996 29.1128 14.2166 29.2668 15.5326C29.3578 16.2676 29.1968 16.9676 28.8538 17.3526C28.6858 17.5416 28.4898 17.6396 28.2728 17.6396V18.6826C28.7908 18.6826 29.2738 18.4586 29.6378 18.0456C30.1838 17.4366 30.4358 16.4496 30.3098 15.4066ZM24.5768 18.7386C24.3668 16.9746 23.1908 15.5886 21.9028 15.5886C21.3848 15.5886 20.9018 15.8126 20.5378 16.2256C19.9918 16.8346 19.7468 17.8216 19.8658 18.8646C19.9078 19.2286 19.9918 19.5786 20.1108 19.9006L21.0348 19.3616C20.9718 19.1656 20.9298 18.9556 20.9018 18.7386C20.8108 18.0036 20.9718 17.3036 21.3148 16.9186C21.4828 16.7296 21.6788 16.6316 21.8958 16.6316C22.5468 16.6316 23.3798 17.5486 23.5338 18.8646C23.6248 19.5996 23.4638 20.2996 23.1208 20.6846C22.9528 20.8736 22.7568 20.9716 22.5398 20.9716V22.0146C23.0578 22.0146 23.5408 21.7906 23.9048 21.3776C24.4508 20.7616 24.7028 19.7746 24.5768 18.7386ZM18.8508 22.0566C18.6408 20.2926 17.4648 18.9066 16.1768 18.9066C15.6588 18.9066 15.1758 19.1306 14.8118 19.5436C14.2658 20.1526 14.0208 21.1396 14.1398 22.1826C14.1818 22.5466 14.2658 22.8966 14.3848 23.2186L15.3088 22.6796C15.2458 22.4836 15.2038 22.2736 15.1758 22.0566C15.0848 21.3216 15.2458 20.6216 15.5888 20.2366C15.7568 20.0476 15.9528 19.9496 16.1698 19.9496C16.8208 19.9496 17.6538 20.8666 17.8078 22.1826C17.8988 22.9176 17.7378 23.6176 17.3948 24.0026C17.2268 24.1916 17.0308 24.2896 16.8138 24.2896V25.3326C17.3318 25.3326 17.8148 25.1086 18.1788 24.6956C18.7248 24.0866 18.9768 23.0996 18.8508 22.0566Z" fill="#58595B"/>
<path d="M39.3536 14.9449C39.3326 14.8329 39.2556 14.7419 39.1506 14.6999C39.0456 14.6579 38.9336 14.6649 38.8356 14.7209L18.3536 27.0198C18.2276 27.0968 18.1576 27.2509 18.1926 27.3979L22.0846 44.6879C22.1056 44.7999 22.1826 44.8909 22.2876 44.9329C22.3296 44.9539 22.3786 44.9609 22.4276 44.9609C22.4906 44.9609 22.5536 44.9469 22.6096 44.9119L43.0916 32.6129C43.2176 32.5359 43.2876 32.3818 43.2526 32.2348L39.3536 14.9449ZM36.3506 35.8399L35.4966 32.0529L38.3176 30.3588L39.1716 34.1458L36.3506 35.8399ZM32.8996 37.9118L32.0456 34.1249L34.8666 32.4309L35.7206 36.2179L32.8996 37.9118ZM29.4486 39.9839L28.5946 36.1968L31.4156 34.5029L32.2696 38.2899L29.4486 39.9839ZM25.9976 42.0629L25.1436 38.2759L27.9646 36.5819L28.8186 40.3688L25.9976 42.0629ZM20.8736 36.1339L23.5826 34.5098L24.3526 37.9328L21.6436 39.5568L20.8736 36.1339ZM19.9426 31.9899L22.6516 30.3659L23.4216 33.7889L20.7126 35.4129L19.9426 31.9899ZM25.0876 23.7859L25.9416 27.5729L23.1206 29.2669L22.2596 25.4799L25.0876 23.7859ZM28.5386 21.7139L29.3926 25.5009L26.5716 27.1948L25.7176 23.4079L28.5386 21.7139ZM35.4406 17.5699L36.2946 21.3569L33.4736 23.0509L32.6196 19.2639L35.4406 17.5699ZM40.5646 23.4919L37.8556 25.1159L37.0856 21.6929L39.7946 20.0689L40.5646 23.4919ZM37.2256 25.5009L34.4046 27.1948L33.6346 23.7719L36.4556 22.0779L37.2256 25.5009ZM30.4846 30.3588L31.2546 33.7818L28.4336 35.4759L27.6636 32.0529L30.4846 30.3588ZM27.5026 31.3389L26.7326 27.9159L29.5536 26.2219L30.3236 29.6448L27.5026 31.3389ZM31.1146 29.9809L33.9356 28.2869L34.7056 31.7099L31.8846 33.4039L31.1146 29.9809ZM30.9536 29.2669L30.1836 25.8439L33.0046 24.1499L33.7746 27.5729L30.9536 29.2669ZM26.1026 28.2938L26.8726 31.7169L24.0516 33.4109L23.2816 29.9879L26.1026 28.2938ZM35.3356 31.3389L34.5656 27.9159L37.3866 26.2219L38.1566 29.6448L35.3356 31.3389ZM38.0166 25.8369L40.7256 24.2129L41.4956 27.6358L38.7866 29.2599L38.0166 25.8369ZM39.6336 19.3549L36.9246 20.9789L36.0706 17.1919L38.7796 15.5679L39.6336 19.3549ZM21.6366 25.8579L22.4906 29.6448L19.7816 31.2688L18.9276 27.4818L21.6366 25.8579ZM21.8046 40.2779L24.5136 38.6539L25.3676 42.4409L22.6586 44.0649L21.8046 40.2779Z" fill="#BBBDBF"/>
<path d="M31.9899 19.6416L32.8439 23.4286L30.0159 25.1226L29.1689 21.3356L31.9899 19.6416Z" fill="#EE4861"/>
<path d="M24.2129 34.1317L27.0339 32.4307L27.8039 35.8607L24.9829 37.5547L24.2129 34.1317Z" fill="#488ECB"/>
<path d="M39.8022 33.7676L38.9482 29.9806L41.6572 28.3496L42.5112 32.1436L39.8022 33.7676Z" fill="#63AC45"/>
</svg>
